<svg viewBox="0 0 640 400" data-background-color="#ffffff" preserveAspectRatio="xMidYMid meet" height="400" width="640" xmlns="http://www.w3.org/2000/svg" xmlns:xlink="http://www.w3.org/1999/xlink"><rect width="640" height="400" x="0" y="0" opacity="1" fill="#ffffff" data-fill-palette-color="background" id="background"></rect><g id="tight-bounds" transform="matrix(1,0,0,1,122.24000000000004,161.38193170228718)"><svg viewBox="0 0 395.5199999999999 77.23613659542563" height="77.23613659542563" width="395.5199999999999"><g><svg viewBox="0 0 512.1472750845298 100.01081334800713" height="77.23613659542563" width="395.5199999999999"><g><rect width="2.6544441024673207" height="57.89337965152365" x="107.02402443110103" y="21.05871684824174" fill="#ff0000" opacity="1" stroke-width="0" stroke="transparent" fill-opacity="1" class="rect-o-0" data-fill-palette-color="primary" rx="1%" id="o-0" data-palette-color="#ff0000"></rect></g><g transform="matrix(1,0,0,1,116.62727508452993,25.883165152535376)"><svg viewBox="0 0 395.52 48.24448304293638" height="48.24448304293638" width="395.52"><g><svg viewBox="0 0 395.52 48.24448304293638" height="48.24448304293638" width="395.52"><g><svg viewBox="0 0 395.52 29.43461661058969" height="29.43461661058969" width="395.52"><g transform="matrix(1,0,0,1,0,0)"><svg width="395.52" viewBox="3.0799999237060547 -40.5 551.4299926757812 41.040000915527344" height="29.43461661058969" data-palette-color="#ff0000"><path d="M3.08-5.08L7.2-11.35Q9.28-10.18 11.41-9.24 13.55-8.3 15.84-7.65 18.14-7.01 20.67-6.67 23.19-6.32 26.05-6.32L26.05-6.32Q29.49-6.32 31.91-6.77 34.33-7.23 35.85-8.02 37.38-8.81 38.07-9.91 38.77-11.01 38.77-12.3L38.77-12.3Q38.77-14.38 37.04-15.59 35.3-16.8 31.69-16.8L31.69-16.8Q30.1-16.8 28.34-16.59 26.59-16.38 24.79-16.14 23-15.89 21.25-15.69 19.51-15.48 17.97-15.48L17.97-15.48Q15.41-15.48 13.05-16.14 10.69-16.8 8.87-18.12 7.06-19.43 5.98-21.41 4.91-23.39 4.91-26.03L4.91-26.03Q4.91-27.59 5.33-29.13 5.76-30.66 6.7-32.07 7.64-33.47 9.13-34.68 10.62-35.89 12.73-36.77 14.84-37.65 17.61-38.15 20.39-38.65 23.93-38.65L23.93-38.65Q26.49-38.65 29.08-38.37 31.67-38.09 34.12-37.57 36.57-37.06 38.84-36.34 41.11-35.62 43.07-34.74L43.07-34.74 39.67-28.49Q38.06-29.2 36.21-29.8 34.35-30.4 32.32-30.83 30.3-31.27 28.14-31.53 25.98-31.79 23.73-31.79L23.73-31.79Q20.53-31.79 18.47-31.32 16.41-30.86 15.19-30.14 13.96-29.42 13.49-28.53 13.01-27.64 13.01-26.76L13.01-26.76Q13.01-25.05 14.55-23.96 16.09-22.88 19.24-22.88L19.24-22.88Q20.51-22.88 22.16-23.06 23.8-23.24 25.62-23.46 27.44-23.68 29.33-23.86 31.23-24.05 33.01-24.05L33.01-24.05Q36.38-24.05 38.98-23.29 41.58-22.53 43.33-21.13 45.09-19.73 46-17.74 46.9-15.75 46.9-13.28L46.9-13.28Q46.9-9.99 45.37-7.41 43.85-4.83 41.03-3.06 38.21-1.29 34.23-0.38 30.25 0.54 25.37 0.54L25.37 0.54Q22.14 0.54 19.07 0.13 15.99-0.27 13.17-1.01 10.35-1.76 7.8-2.8 5.25-3.83 3.08-5.08L3.08-5.08ZM54.44 0L54.44-38.16 62.23-38.16 62.23 0 54.44 0ZM83.59 0L83.59-31.37 69.5-31.37 69.5-38.16 105.41-38.16 105.41-31.37 91.33-31.37 91.33 0 83.59 0ZM113.66 0L113.66-38.16 146.16-38.16 146.16-31.37 121.4-31.37 121.4-23.75 143.33-23.75 143.33-17.38 121.4-17.38 121.4-6.76 146.67-6.76 146.67 0 113.66 0ZM171.86 0L171.86-38.16 185.85-38.16Q191.98-38.16 196.5-36.84 201.01-35.52 203.98-33.07 206.95-30.62 208.4-27.11 209.85-23.61 209.85-19.24L209.85-19.24Q209.85-15.09 208.41-11.56 206.97-8.03 204.02-5.46 201.06-2.88 196.55-1.43 192.03 0.02 185.9 0.02L185.9 0.02 171.86 0ZM179.6-6.69L187.76-6.69Q191.22-6.69 193.84-7.58 196.45-8.47 198.19-10.11 199.94-11.74 200.82-14.06 201.7-16.38 201.7-19.24L201.7-19.24Q201.7-22.05 200.82-24.3 199.94-26.56 198.19-28.14 196.45-29.71 193.84-30.57 191.22-31.42 187.76-31.42L187.76-31.42 179.6-31.42 179.6-6.69ZM219.52-23.36L219.52-40.5 225.79-40.5 225.79-23.36 219.52-23.36ZM233.65 0L251.57-38.16 259.77-38.16 278.23 0 270.1 0 267.05-6.42 244.76-6.42 241.8 0 233.65 0ZM247.71-12.79L264-12.79 255.74-30.13 247.71-12.79ZM284.16 0L284.16-38.16 303.57-38.16Q307.96-38.16 311.19-37.24 314.41-36.33 316.53-34.59 318.66-32.86 319.69-30.37 320.73-27.88 320.73-24.73L320.73-24.73Q320.73-22.61 320.22-20.69 319.71-18.77 318.64-17.16 317.58-15.55 315.97-14.29 314.36-13.04 312.19-12.21L312.19-12.21 320.49 0 311.02 0 303.84-10.84 303.62-10.84 291.9-10.86 291.9 0 284.16 0ZM291.9-17.55L303.76-17.55Q305.96-17.55 307.61-18.07 309.26-18.58 310.37-19.51 311.48-20.43 312.03-21.77 312.58-23.1 312.58-24.73L312.58-24.73Q312.58-27.93 310.38-29.68 308.18-31.42 303.76-31.42L303.76-31.42 291.9-31.42 291.9-17.55ZM341.38 0L341.38-31.37 327.3-31.37 327.3-38.16 363.21-38.16 363.21-31.37 349.12-31.37 349.12 0 341.38 0ZM370.48 0L370.48-38.16 378.27-38.16 378.27 0 370.48 0ZM385.81-19.31L385.81-19.31Q385.81-23.39 387.35-26.92 388.89-30.44 391.81-33.04 394.72-35.64 398.93-37.13 403.15-38.62 408.47-38.62L408.47-38.62Q413.13-38.62 417.03-37.68 420.92-36.74 424.26-34.81L424.26-34.81 420.7-28.96Q419.7-29.61 418.39-30.13 417.09-30.64 415.61-30.99 414.13-31.35 412.56-31.54 410.98-31.74 409.45-31.74L409.45-31.74Q405.73-31.74 402.83-30.82 399.92-29.91 397.93-28.26 395.94-26.61 394.91-24.33 393.87-22.05 393.87-19.31L393.87-19.31Q393.87-16.48 394.94-14.11 396.02-11.74 398.06-10.02 400.09-8.3 403.04-7.34 405.98-6.37 409.69-6.37L409.69-6.37Q411.37-6.37 413.03-6.62 414.69-6.86 416.24-7.29 417.79-7.71 419.24-8.31 420.68-8.91 421.92-9.62L421.92-9.62 425.49-3.76Q422.36-1.76 418.26-0.62 414.16 0.51 409.54 0.51L409.54 0.51Q403.66 0.51 399.22-1.01 394.77-2.54 391.79-5.21 388.82-7.89 387.31-11.51 385.81-15.14 385.81-19.31ZM434 0L434-38.16 441.74-38.16 441.74-6.79 463.93-6.79 463.93 0 434 0ZM471.43 0L471.43-38.16 503.92-38.16 503.92-31.37 479.17-31.37 479.17-23.75 501.09-23.75 501.09-17.38 479.17-17.38 479.17-6.76 504.44-6.76 504.44 0 471.43 0ZM510.68-5.08L514.81-11.35Q516.88-10.18 519.02-9.24 521.16-8.3 523.45-7.65 525.75-7.01 528.27-6.67 530.8-6.32 533.66-6.32L533.66-6.32Q537.1-6.32 539.52-6.77 541.93-7.23 543.46-8.02 544.98-8.81 545.68-9.91 546.38-11.01 546.38-12.3L546.38-12.3Q546.38-14.38 544.64-15.59 542.91-16.8 539.3-16.8L539.3-16.8Q537.71-16.8 535.95-16.59 534.19-16.38 532.4-16.14 530.6-15.89 528.86-15.69 527.11-15.48 525.58-15.48L525.58-15.48Q523.01-15.48 520.66-16.14 518.3-16.8 516.48-18.12 514.66-19.43 513.59-21.41 512.51-23.39 512.51-26.03L512.51-26.03Q512.51-27.59 512.94-29.13 513.37-30.66 514.31-32.07 515.25-33.47 516.74-34.68 518.23-35.89 520.34-36.77 522.45-37.65 525.22-38.15 527.99-38.65 531.53-38.65L531.53-38.65Q534.1-38.65 536.68-38.37 539.27-38.09 541.73-37.57 544.18-37.06 546.45-36.34 548.72-35.62 550.67-34.74L550.67-34.74 547.28-28.49Q545.67-29.2 543.81-29.8 541.96-30.4 539.93-30.83 537.9-31.27 535.74-31.53 533.58-31.79 531.34-31.79L531.34-31.79Q528.14-31.79 526.08-31.32 524.01-30.86 522.79-30.14 521.57-29.42 521.1-28.53 520.62-27.64 520.62-26.76L520.62-26.76Q520.62-25.05 522.16-23.96 523.7-22.88 526.84-22.88L526.84-22.88Q528.11-22.88 529.76-23.06 531.41-23.24 533.23-23.46 535.05-23.68 536.94-23.86 538.83-24.05 540.61-24.05L540.61-24.05Q543.98-24.05 546.58-23.29 549.18-22.53 550.94-21.13 552.7-19.73 553.6-17.74 554.51-15.75 554.51-13.28L554.51-13.28Q554.51-9.99 552.98-7.41 551.45-4.83 548.63-3.06 545.81-1.29 541.84-0.38 537.86 0.54 532.97 0.54L532.97 0.54Q529.75 0.54 526.67 0.13 523.6-0.27 520.78-1.01 517.96-1.76 515.41-2.8 512.86-3.83 510.68-5.08L510.68-5.08Z" opacity="1" transform="matrix(1,0,0,1,0,0)" fill="#ff0000" class="undefined-text-0" data-fill-palette-color="primary" id="text-0"></path></svg></g></svg></g><g transform="matrix(1,0,0,1,0,36.38342316155126)"><svg viewBox="0 0 375.74399999999997 11.861059881385115" height="11.861059881385115" width="375.74399999999997"><g transform="matrix(1,0,0,1,0,0)"><svg width="375.74399999999997" viewBox="2.5 -36 1306.6500244140625 41.25" height="11.861059881385115" data-palette-color="#ff0000"><path d="M22.5-32.5L22.5-32.5Q19.95-32.5 17.73-31.6 15.5-30.7 13.85-28.85 12.2-27 11.23-24.18 10.25-21.35 10.25-17.5L10.25-17.5Q10.25-13.65 11.23-10.83 12.2-8 13.85-6.15 15.5-4.3 17.73-3.4 19.95-2.5 22.5-2.5L22.5-2.5Q25.05-2.5 27.28-3.4 29.5-4.3 31.15-6.15 32.8-8 33.77-10.83 34.75-13.65 34.75-17.5L34.75-17.5Q34.75-21.35 33.77-24.18 32.8-27 31.15-28.85 29.5-30.7 27.28-31.6 25.05-32.5 22.5-32.5ZM22.5-36L22.5-36Q27-36 30.68-34.8 34.35-33.6 36.98-31.25 39.6-28.9 41.05-25.45 42.5-22 42.5-17.5L42.5-17.5Q42.5-13 41.05-9.55 39.6-6.1 36.98-3.75 34.35-1.4 30.68-0.2 27 1 22.5 1L22.5 1Q18 1 14.3-0.2 10.6-1.4 7.98-3.75 5.35-6.1 3.93-9.55 2.5-13 2.5-17.5L2.5-17.5Q2.5-22 3.93-25.45 5.35-28.9 7.98-31.25 10.6-33.6 14.3-34.8 18-36 22.5-36ZM77.25-35L84.5-35 84.5 0 75 0 56.25-28.5 55.75-28.5 55.75 0 48.5 0 48.5-35 58-35 76.75-6.5 77.25-6.5 77.25-35ZM139.49-31.25L116.24-31.25 116.24-19.75 134.49-19.75 134.49-16 116.24-16 116.24-3.75 139.49-3.75 139.49 0 108.99 0 108.99-35 139.49-35 139.49-31.25ZM162.99-2.75L162.99-2.75Q166.39-2.75 169.52-3.93 172.64-5.1 175.49-7.75L175.49-7.75 177.99-4.75Q175.14-2.1 171.09-0.55 167.04 1 162.49 1L162.49 1Q157.79 1 154.02-0.2 150.24-1.4 147.56-3.75 144.89-6.1 143.44-9.55 141.99-13 141.99-17.5L141.99-17.5Q141.99-22 143.42-25.45 144.84-28.9 147.47-31.25 150.09-33.6 153.79-34.8 157.49-36 161.99-36L161.99-36Q166.54-36 170.59-34.45 174.64-32.9 177.49-30.25L177.49-30.25 174.99-27.25Q172.14-29.9 169.02-31.08 165.89-32.25 162.49-32.25L162.49-32.25Q159.79-32.25 157.44-31.38 155.09-30.5 153.39-28.7 151.69-26.9 150.72-24.13 149.74-21.35 149.74-17.5L149.74-17.5Q149.74-13.65 150.72-10.88 151.69-8.1 153.47-6.3 155.24-4.5 157.67-3.63 160.09-2.75 162.99-2.75ZM182.49-35L200.49-35Q204.24-35 207.21-34.18 210.19-33.35 212.24-31.78 214.29-30.2 215.39-27.93 216.49-25.65 216.49-22.75L216.49-22.75Q216.49-18.75 214.49-16 212.49-13.25 208.74-11.8L208.74-11.8 216.99 0 208.74 0 201.39-10.5 200.49-10.5 189.74-10.5 189.74 0 182.49 0 182.49-35ZM200.49-31.25L189.74-31.25 189.74-14.25 200.49-14.25Q204.44-14.25 206.59-16.32 208.74-18.4 208.74-22.75L208.74-22.75Q208.74-27.1 206.59-29.18 204.44-31.25 200.49-31.25L200.49-31.25ZM229.74-35L229.74 0 222.49 0 222.49-35 229.74-35ZM267.98-35L267.98-31.25 254.48-31.25 254.48 0 247.23 0 247.23-31.25 233.73-31.25 233.73-35 267.98-35ZM289.48-35L305.98-35Q310.48-35 314.15-33.88 317.83-32.75 320.45-30.55 323.08-28.35 324.53-25.08 325.98-21.8 325.98-17.5L325.98-17.5Q325.98-13.2 324.53-9.93 323.08-6.65 320.45-4.45 317.83-2.25 314.15-1.13 310.48 0 305.98 0L305.98 0 289.48 0 289.48-35ZM305.98-31.25L296.73-31.25 296.73-3.75 305.98-3.75Q308.53-3.75 310.75-4.53 312.98-5.3 314.63-6.98 316.28-8.65 317.25-11.25 318.23-13.85 318.23-17.5L318.23-17.5Q318.23-21.15 317.25-23.75 316.28-26.35 314.63-28.03 312.98-29.7 310.75-30.48 308.53-31.25 305.98-31.25L305.98-31.25ZM361.98-31.25L338.73-31.25 338.73-19.75 356.98-19.75 356.98-16 338.73-16 338.73-3.75 361.98-3.75 361.98 0 331.48 0 331.48-35 361.98-35 361.98-31.25ZM399.47-9.25L399.47-9.25Q399.47-7.1 398.57-5.23 397.67-3.35 395.65-1.98 393.62-0.6 390.4 0.2 387.17 1 382.47 1L382.47 1Q379.82 1 377.3 0.6 374.77 0.2 372.5-0.55 370.22-1.3 368.3-2.38 366.37-3.45 364.97-4.75L364.97-4.75 367.47-7.75Q370.32-5.3 374.12-4.03 377.92-2.75 382.47-2.75L382.47-2.75Q387.52-2.75 389.62-4.15 391.72-5.55 391.72-8L391.72-8Q391.72-9.9 390.07-11.2 388.42-12.5 384.47-13.75L384.47-13.75 374.97-16.75Q370.27-18.25 367.87-20.58 365.47-22.9 365.47-26.5L365.47-26.5Q365.47-28.35 366.35-30.08 367.22-31.8 369.07-33.13 370.92-34.45 373.8-35.23 376.67-36 380.72-36L380.72-36Q383.17-36 385.6-35.6 388.02-35.2 390.25-34.45 392.47-33.7 394.4-32.63 396.32-31.55 397.72-30.25L397.72-30.25 395.22-27.25Q392.37-29.7 388.82-30.98 385.27-32.25 380.72-32.25L380.72-32.25Q376.97-32.25 375.1-30.95 373.22-29.65 373.22-27.75L373.22-27.75Q373.22-26.7 373.57-25.93 373.92-25.15 374.75-24.48 375.57-23.8 376.92-23.23 378.27-22.65 380.27-22L380.27-22 389.72-19Q394.27-17.55 396.87-15.2 399.47-12.85 399.47-9.25ZM453.22-35L453.22-31.25 439.72-31.25 439.72 0 432.47 0 432.47-31.25 418.97-31.25 418.97-35 453.22-35ZM457.22-35L475.22-35Q478.97-35 481.94-34.18 484.92-33.35 486.97-31.78 489.02-30.2 490.12-27.93 491.22-25.65 491.22-22.75L491.22-22.75Q491.22-18.75 489.22-16 487.22-13.25 483.47-11.8L483.47-11.8 491.72 0 483.47 0 476.12-10.5 475.22-10.5 464.47-10.5 464.47 0 457.22 0 457.22-35ZM475.22-31.25L464.47-31.25 464.47-14.25 475.22-14.25Q479.17-14.25 481.32-16.32 483.47-18.4 483.47-22.75L483.47-22.75Q483.47-27.1 481.32-29.18 479.17-31.25 475.22-31.25L475.22-31.25ZM515.21-2.5L515.21-2.5Q517.66-2.5 519.64-3.18 521.61-3.85 523.01-5.28 524.41-6.7 525.19-8.93 525.96-11.15 525.96-14.25L525.96-14.25 525.96-35 533.21-35 533.21-14.25Q533.21-6.55 528.51-2.78 523.81 1 515.21 1L515.21 1Q506.56 1 501.89-2.78 497.21-6.55 497.21-14.25L497.21-14.25 497.21-35 504.46-35 504.46-14.25Q504.46-11.15 505.24-8.93 506.01-6.7 507.41-5.28 508.81-3.85 510.79-3.18 512.76-2.5 515.21-2.5ZM560.21-2.75L560.21-2.75Q563.61-2.75 566.74-3.93 569.86-5.1 572.71-7.75L572.71-7.75 575.21-4.75Q572.36-2.1 568.31-0.55 564.26 1 559.71 1L559.71 1Q555.01 1 551.24-0.2 547.46-1.4 544.79-3.75 542.11-6.1 540.66-9.55 539.21-13 539.21-17.5L539.21-17.5Q539.21-22 540.63-25.45 542.06-28.9 544.69-31.25 547.31-33.6 551.01-34.8 554.71-36 559.21-36L559.21-36Q563.76-36 567.81-34.45 571.86-32.9 574.71-30.25L574.71-30.25 572.21-27.25Q569.36-29.9 566.24-31.08 563.11-32.25 559.71-32.25L559.71-32.25Q557.01-32.25 554.66-31.38 552.31-30.5 550.61-28.7 548.91-26.9 547.94-24.13 546.96-21.35 546.96-17.5L546.96-17.5Q546.96-13.65 547.94-10.88 548.91-8.1 550.69-6.3 552.46-4.5 554.88-3.63 557.31-2.75 560.21-2.75ZM612.21-9.25L612.21-9.25Q612.21-7.1 611.31-5.23 610.41-3.35 608.38-1.98 606.36-0.6 603.13 0.2 599.91 1 595.21 1L595.21 1Q592.56 1 590.03 0.6 587.51 0.2 585.23-0.55 582.96-1.3 581.03-2.38 579.11-3.45 577.71-4.75L577.71-4.75 580.21-7.75Q583.06-5.3 586.86-4.03 590.66-2.75 595.21-2.75L595.21-2.75Q600.26-2.75 602.36-4.15 604.46-5.55 604.46-8L604.46-8Q604.46-9.9 602.81-11.2 601.16-12.5 597.21-13.75L597.21-13.75 587.71-16.75Q583.01-18.25 580.61-20.58 578.21-22.9 578.21-26.5L578.21-26.5Q578.21-28.35 579.08-30.08 579.96-31.8 581.81-33.13 583.66-34.45 586.53-35.23 589.41-36 593.46-36L593.46-36Q595.91-36 598.33-35.6 600.76-35.2 602.98-34.45 605.21-33.7 607.13-32.63 609.06-31.55 610.46-30.25L610.46-30.25 607.96-27.25Q605.11-29.7 601.56-30.98 598.01-32.25 593.46-32.25L593.46-32.25Q589.71-32.25 587.83-30.95 585.96-29.65 585.96-27.75L585.96-27.75Q585.96-26.7 586.31-25.93 586.66-25.15 587.48-24.48 588.31-23.8 589.66-23.23 591.01-22.65 593.01-22L593.01-22 602.46-19Q607.01-17.55 609.61-15.2 612.21-12.85 612.21-9.25ZM634.7-35L652.7-35Q656.45-35 659.43-34.18 662.4-33.35 664.45-31.78 666.5-30.2 667.6-27.93 668.7-25.65 668.7-22.75L668.7-22.75Q668.7-19.85 667.6-17.57 666.5-15.3 664.45-13.73 662.4-12.15 659.43-11.33 656.45-10.5 652.7-10.5L652.7-10.5 641.95-10.5 641.95 0 634.7 0 634.7-35ZM652.7-31.25L641.95-31.25 641.95-14.25 652.7-14.25Q656.65-14.25 658.83-16.32 661-18.4 661-22.75L661-22.75Q661-27.1 658.83-29.18 656.65-31.25 652.7-31.25L652.7-31.25ZM693.2-32.5L693.2-32.5Q690.65-32.5 688.42-31.6 686.2-30.7 684.55-28.85 682.9-27 681.92-24.18 680.95-21.35 680.95-17.5L680.95-17.5Q680.95-13.65 681.92-10.83 682.9-8 684.55-6.15 686.2-4.3 688.42-3.4 690.65-2.5 693.2-2.5L693.2-2.5Q695.75-2.5 697.97-3.4 700.2-4.3 701.85-6.15 703.5-8 704.47-10.83 705.45-13.65 705.45-17.5L705.45-17.5Q705.45-21.35 704.47-24.18 703.5-27 701.85-28.85 700.2-30.7 697.97-31.6 695.75-32.5 693.2-32.5ZM693.2-36L693.2-36Q697.7-36 701.37-34.8 705.05-33.6 707.67-31.25 710.3-28.9 711.75-25.45 713.2-22 713.2-17.5L713.2-17.5Q713.2-13 711.75-9.55 710.3-6.1 707.67-3.75 705.05-1.4 701.37-0.2 697.7 1 693.2 1L693.2 1Q688.7 1 685-0.2 681.3-1.4 678.67-3.75 676.05-6.1 674.62-9.55 673.2-13 673.2-17.5L673.2-17.5Q673.2-22 674.62-25.45 676.05-28.9 678.67-31.25 681.3-33.6 685-34.8 688.7-36 693.2-36ZM737.2-2.5L737.2-2.5Q739.65-2.5 741.62-3.18 743.6-3.85 745-5.28 746.4-6.7 747.17-8.93 747.95-11.15 747.95-14.25L747.95-14.25 747.95-35 755.2-35 755.2-14.25Q755.2-6.55 750.5-2.78 745.8 1 737.2 1L737.2 1Q728.55 1 723.87-2.78 719.2-6.55 719.2-14.25L719.2-14.25 719.2-35 726.45-35 726.45-14.25Q726.45-11.15 727.22-8.93 728-6.7 729.4-5.28 730.8-3.85 732.77-3.18 734.75-2.5 737.2-2.5ZM762.19-35L780.19-35Q783.94-35 786.92-34.18 789.89-33.35 791.94-31.78 793.99-30.2 795.09-27.93 796.19-25.65 796.19-22.75L796.19-22.75Q796.19-18.75 794.19-16 792.19-13.25 788.44-11.8L788.44-11.8 796.69 0 788.44 0 781.09-10.5 780.19-10.5 769.44-10.5 769.44 0 762.19 0 762.19-35ZM780.19-31.25L769.44-31.25 769.44-14.25 780.19-14.25Q784.14-14.25 786.29-16.32 788.44-18.4 788.44-22.75L788.44-22.75Q788.44-27.1 786.29-29.18 784.14-31.25 780.19-31.25L780.19-31.25ZM838.69-36L838.69-36Q843.19-36 846.86-34.8 850.54-33.6 853.16-31.25 855.79-28.9 857.24-25.45 858.69-22 858.69-17.5L858.69-17.5Q858.69-11.75 856.39-7.75 854.09-3.75 849.99-1.55L849.99-1.55 853.19 2 849.69 5.25 845.24 0.25Q842.24 1 838.69 1L838.69 1Q834.19 1 830.49-0.2 826.79-1.4 824.16-3.75 821.54-6.1 820.11-9.55 818.69-13 818.69-17.5L818.69-17.5Q818.69-22 820.11-25.45 821.54-28.9 824.16-31.25 826.79-33.6 830.49-34.8 834.19-36 838.69-36ZM838.69-32.5L838.69-32.5Q836.14-32.5 833.91-31.6 831.69-30.7 830.04-28.85 828.39-27 827.41-24.18 826.44-21.35 826.44-17.5L826.44-17.5Q826.44-13.65 827.41-10.83 828.39-8 830.04-6.15 831.69-4.3 833.91-3.4 836.14-2.5 838.69-2.5L838.69-2.5Q840.64-2.5 842.29-3L842.29-3 839.44-6.25 842.94-9.5 846.59-5.4Q848.59-7.2 849.76-10.2 850.94-13.2 850.94-17.5L850.94-17.5Q850.94-21.35 849.96-24.18 848.99-27 847.34-28.85 845.69-30.7 843.46-31.6 841.24-32.5 838.69-32.5ZM882.69-2.5L882.69-2.5Q885.14-2.5 887.11-3.18 889.09-3.85 890.49-5.28 891.89-6.7 892.66-8.93 893.44-11.15 893.44-14.25L893.44-14.25 893.44-35 900.69-35 900.69-14.25Q900.69-6.55 895.99-2.78 891.29 1 882.69 1L882.69 1Q874.04 1 869.36-2.78 864.69-6.55 864.69-14.25L864.69-14.25 864.69-35 871.94-35 871.94-14.25Q871.94-11.15 872.71-8.93 873.49-6.7 874.89-5.28 876.29-3.85 878.26-3.18 880.24-2.5 882.69-2.5ZM938.18-31.25L914.93-31.25 914.93-19.75 933.18-19.75 933.18-16 914.93-16 914.93-3.75 938.18-3.75 938.18 0 907.68 0 907.68-35 938.18-35 938.18-31.25ZM965.13-35L977.68-4.25 978.18-4.25 990.73-35 998.18-35 983.93 0 971.93 0 957.68-35 965.13-35ZM1019.68-32.5L1019.68-32.5Q1017.13-32.5 1014.9-31.6 1012.68-30.7 1011.03-28.85 1009.38-27 1008.4-24.18 1007.43-21.35 1007.43-17.5L1007.43-17.5Q1007.43-13.65 1008.4-10.83 1009.38-8 1011.03-6.15 1012.68-4.3 1014.9-3.4 1017.13-2.5 1019.68-2.5L1019.68-2.5Q1022.23-2.5 1024.45-3.4 1026.68-4.3 1028.33-6.15 1029.98-8 1030.95-10.83 1031.93-13.65 1031.93-17.5L1031.93-17.5Q1031.93-21.35 1030.95-24.18 1029.98-27 1028.33-28.85 1026.68-30.7 1024.45-31.6 1022.23-32.5 1019.68-32.5ZM1019.68-36L1019.68-36Q1024.18-36 1027.85-34.8 1031.53-33.6 1034.15-31.25 1036.78-28.9 1038.23-25.45 1039.68-22 1039.68-17.5L1039.68-17.5Q1039.68-13 1038.23-9.55 1036.78-6.1 1034.15-3.75 1031.53-1.4 1027.85-0.2 1024.18 1 1019.68 1L1019.68 1Q1015.18 1 1011.48-0.2 1007.78-1.4 1005.15-3.75 1002.53-6.1 1001.1-9.55 999.68-13 999.68-17.5L999.68-17.5Q999.68-22 1001.1-25.45 1002.53-28.9 1005.15-31.25 1007.78-33.6 1011.48-34.8 1015.18-36 1019.68-36ZM1063.67-2.5L1063.67-2.5Q1066.12-2.5 1068.1-3.18 1070.07-3.85 1071.47-5.28 1072.87-6.7 1073.65-8.93 1074.42-11.15 1074.42-14.25L1074.42-14.25 1074.42-35 1081.67-35 1081.67-14.25Q1081.67-6.55 1076.97-2.78 1072.27 1 1063.67 1L1063.67 1Q1055.02 1 1050.35-2.78 1045.67-6.55 1045.67-14.25L1045.67-14.25 1045.67-35 1052.92-35 1052.92-14.25Q1052.92-11.15 1053.7-8.93 1054.47-6.7 1055.87-5.28 1057.27-3.85 1059.25-3.18 1061.22-2.5 1063.67-2.5ZM1121.17-9.25L1121.17-9.25Q1121.17-7.1 1120.27-5.23 1119.37-3.35 1117.35-1.98 1115.32-0.6 1112.1 0.2 1108.87 1 1104.17 1L1104.17 1Q1101.52 1 1099 0.6 1096.47 0.2 1094.2-0.55 1091.92-1.3 1090-2.38 1088.07-3.45 1086.67-4.75L1086.67-4.75 1089.17-7.75Q1092.02-5.3 1095.82-4.03 1099.62-2.75 1104.17-2.75L1104.17-2.75Q1109.22-2.75 1111.32-4.15 1113.42-5.55 1113.42-8L1113.42-8Q1113.42-9.9 1111.77-11.2 1110.12-12.5 1106.17-13.75L1106.17-13.75 1096.67-16.75Q1091.97-18.25 1089.57-20.58 1087.17-22.9 1087.17-26.5L1087.17-26.5Q1087.17-28.35 1088.05-30.08 1088.92-31.8 1090.77-33.13 1092.62-34.45 1095.5-35.23 1098.37-36 1102.42-36L1102.42-36Q1104.87-36 1107.3-35.6 1109.72-35.2 1111.95-34.45 1114.17-33.7 1116.1-32.63 1118.02-31.55 1119.42-30.25L1119.42-30.25 1116.92-27.25Q1114.07-29.7 1110.52-30.98 1106.97-32.25 1102.42-32.25L1102.42-32.25Q1098.67-32.25 1096.8-30.95 1094.92-29.65 1094.92-27.75L1094.92-27.75Q1094.92-26.7 1095.27-25.93 1095.62-25.15 1096.45-24.48 1097.27-23.8 1098.62-23.23 1099.97-22.65 1101.97-22L1101.97-22 1111.42-19Q1115.97-17.55 1118.57-15.2 1121.17-12.85 1121.17-9.25ZM1150.92-3.75L1172.42-3.75 1172.42 0 1143.67 0 1143.67-35 1150.92-35 1150.92-3.75ZM1184.16-35L1184.16 0 1176.91 0 1176.91-35 1184.16-35ZM1223.66-9.25L1223.66-9.25Q1223.66-7.1 1222.76-5.23 1221.86-3.35 1219.84-1.98 1217.81-0.6 1214.59 0.2 1211.36 1 1206.66 1L1206.66 1Q1204.01 1 1201.49 0.6 1198.96 0.2 1196.69-0.55 1194.41-1.3 1192.49-2.38 1190.56-3.45 1189.16-4.75L1189.16-4.75 1191.66-7.75Q1194.51-5.3 1198.31-4.03 1202.11-2.75 1206.66-2.75L1206.66-2.75Q1211.71-2.75 1213.81-4.15 1215.91-5.55 1215.91-8L1215.91-8Q1215.91-9.9 1214.26-11.2 1212.61-12.5 1208.66-13.75L1208.66-13.75 1199.16-16.75Q1194.46-18.25 1192.06-20.58 1189.66-22.9 1189.66-26.5L1189.66-26.5Q1189.66-28.35 1190.54-30.08 1191.41-31.8 1193.26-33.13 1195.11-34.45 1197.99-35.23 1200.86-36 1204.91-36L1204.91-36Q1207.36-36 1209.79-35.6 1212.21-35.2 1214.44-34.45 1216.66-33.7 1218.59-32.63 1220.51-31.55 1221.91-30.25L1221.91-30.25 1219.41-27.25Q1216.56-29.7 1213.01-30.98 1209.46-32.25 1204.91-32.25L1204.91-32.25Q1201.16-32.25 1199.29-30.95 1197.41-29.65 1197.41-27.75L1197.41-27.75Q1197.41-26.7 1197.76-25.93 1198.11-25.15 1198.94-24.48 1199.76-23.8 1201.11-23.23 1202.46-22.65 1204.46-22L1204.46-22 1213.91-19Q1218.46-17.55 1221.06-15.2 1223.66-12.85 1223.66-9.25ZM1235.91-35L1235.91 0 1228.66 0 1228.66-35 1235.91-35ZM1273.41-31.25L1250.16-31.25 1250.16-19.75 1268.41-19.75 1268.41-16 1250.16-16 1250.16-3.75 1273.41-3.75 1273.41 0 1242.91 0 1242.91-35 1273.41-35 1273.41-31.25ZM1308.65-35L1308.65-30.75 1285.4-3.75 1309.15-3.75 1309.15 0 1276.65 0 1276.65-4.25 1299.9-31.25 1277.15-31.25 1277.15-35 1308.65-35Z" opacity="1" transform="matrix(1,0,0,1,0,0)" fill="#ff0000" class="undefined-text-1" data-fill-palette-color="secondary" id="text-1"></path></svg></g></svg></g></svg></g></svg></g><g><svg viewBox="0 0 100.07521788013945 100.01081334800713" height="100.01081334800713" width="100.07521788013945"><g><svg xmlns="http://www.w3.org/2000/svg" xmlns:xlink="http://www.w3.org/1999/xlink" version="1.1" x="0" y="0" viewBox="0.00026348233222961426 0.06212490797042847 71.44985961914062 71.40387725830078" enable-background="new 0 0 71.467 71.465" xml:space="preserve" width="100.07521788013945" height="100.01081334800713" class="icon-icon-0" data-fill-palette-color="accent" id="icon-0"><path fill="#ff0000" d="M70.983 5.172L66.34 0.529c-0.623-0.623-1.632-0.622-2.254 0l-3.46 3.459-0.333-0.334c-0.623-0.624-1.633-0.624-2.257 0l-50.91 50.91c-0.13 0.129-0.237 0.281-0.316 0.448L0.152 69.193c-0.286 0.607-0.16 1.327 0.313 1.803 0.306 0.307 0.715 0.47 1.13 0.47 0.228 0 0.457-0.049 0.672-0.149l14.225-6.612c0.168-0.078 0.323-0.186 0.455-0.318l43.678-43.678 2.101 2.099-23.979 23.98 2.254 2.254 25.107-25.107c0.3-0.298 0.468-0.704 0.468-1.127 0-0.422-0.168-0.828-0.468-1.127l-3.227-3.227 4.977-4.977c0.298-0.299 0.467-0.704 0.467-1.127 0-0.423-0.169-0.828-0.467-1.127l-0.335-0.334 3.459-3.459C71.606 6.804 71.606 5.794 70.983 5.172zM9.555 56.671l5.284 5.284-9.934 4.617L9.555 56.671zM17.109 59.715l-5.312-5.312L59.164 7.037l3.501 3.5 1.478 1.476c0.002 0.002 0.003 0.002 0.005 0.004l0.329 0.33L17.109 59.715zM65.27 8.631l-2.388-2.389 2.331-2.33 2.388 2.387L65.27 8.631z" data-fill-palette-color="accent"></path></svg></g></svg></g></svg></g></svg><rect width="395.5199999999999" height="77.23613659542563" fill="none" stroke="none" visibility="hidden"></rect></g><defs></defs></svg>